<svg id="Layer_1" data-name="Layer 1" xmlns="http://www.w3.org/2000/svg" viewBox="0 0 145.2 42"><path d="M41.44,38.79,32.63,30a15,15,0,0,0,3-10.22c-.39-4.59-2.76-9.11-6.77-13.17C17.32-4.72,3.38,1.9,2.85,2.1l-.52.19-.26.59c-.07.2-6.91,14.42,4.66,26,4.6,4.59,9.73,7,14.6,7a14.71,14.71,0,0,0,8.8-3.08l8.81,8.78a1.91,1.91,0,0,0,1.32.52,2.27,2.27,0,0,0,1.31-.52A2.08,2.08,0,0,0,41.44,38.79ZM9.3,26.21C.68,17.63,4.17,7.6,5.09,5.05A19.14,19.14,0,0,1,26.26,9.24c3.48,3.47,5.32,7.14,5.65,10.74a10,10,0,0,1-2,7.28l-4.73-4.72V14a1.72,1.72,0,0,0-1.84-1.83A1.72,1.72,0,0,0,21.46,14v4.92L16.4,13.83a1.8,1.8,0,0,0-2.57,0,1.78,1.78,0,0,0,0,2.55l3.49,3.47H12.39a1.73,1.73,0,0,0-1.85,1.84,1.73,1.73,0,0,0,1.85,1.83H21l1.11,1.12,5.13,5.11C22.38,33.68,15.34,32.17,9.3,26.21Z" transform="translate(0 0)" style="fill:#ff9f29"/><path d="M54.21,32.22c-1,0-2.17,0-3.44-.11s-2.36-.17-3.33-.28V29.62c2.42.24,4.45.36,6.07.36a18.64,18.64,0,0,0,2.38-.11,4.63,4.63,0,0,0,1.51-.47,1.54,1.54,0,0,0,.73-1,7.66,7.66,0,0,0,.17-1.77,8.54,8.54,0,0,0-.14-1.85,1.18,1.18,0,0,0-.67-.81,5.33,5.33,0,0,0-1.77-.36L51,23.1a5.87,5.87,0,0,1-2.63-.82,3.12,3.12,0,0,1-1.17-1.65,10.41,10.41,0,0,1-.28-2.69,6.32,6.32,0,0,1,.78-3.47A3.94,3.94,0,0,1,49.9,12.9a15.59,15.59,0,0,1,3.89-.39c1.08,0,2.19.05,3.31.14a26.8,26.8,0,0,1,2.66.34v2.13a25,25,0,0,0-2.64-.26c-1-.07-2-.11-2.91-.11a18.71,18.71,0,0,0-2.52.14,3.84,3.84,0,0,0-1.48.48,1.53,1.53,0,0,0-.76.89,6,6,0,0,0-.17,1.6,6.09,6.09,0,0,0,.17,1.68,1.28,1.28,0,0,0,.65.76,5.06,5.06,0,0,0,1.56.33l4.71.53a8.71,8.71,0,0,1,2.6.59,2.6,2.6,0,0,1,1.35,1.51,9.7,9.7,0,0,1,.39,3.22,7.27,7.27,0,0,1-.79,3.81,3.55,3.55,0,0,1-2.1,1.6A15.47,15.47,0,0,1,54.21,32.22ZM65.41,32V12.74h2.41V32Zm25.46,0V16.85h-.12L84.15,32H82.38L75.8,16.85h-.11V32H73.42V12.74h3.25l6.58,15h.14l6.58-15h3.25V32Zm7.95-19.26h8.46a6.77,6.77,0,0,1,3.53.75,3.62,3.62,0,0,1,1.59,2,11.38,11.38,0,0,1,.39,3.33,11.3,11.3,0,0,1-.39,3.27,3.71,3.71,0,0,1-1.62,2.08,6.6,6.6,0,0,1-3.56.78h-6v7H98.82Zm7.59,10a7.2,7.2,0,0,0,2.66-.36,1.94,1.94,0,0,0,1.09-1.18,8.08,8.08,0,0,0,.26-2.35,8,8,0,0,0-.26-2.35,1.73,1.73,0,0,0-1.06-1.15,6.49,6.49,0,0,0-2.63-.39h-5.24v7.78ZM117.09,32V12.74h2.41V29.68h9V32Zm15.06,0V12.74H144.7V15H134.56v6.18h8.79V23.4h-8.79v6.36H144.7V32Z" transform="translate(0 0)" style="fill:#ff9f29"/><path d="M50.77,32.11l0,.5h0Zm-3.33-.28h-.5v.45l.44,0Zm0-2.21.05-.5-.55-.05v.55Zm8.45.25.07.5h0Zm1.51-.47.24.43h0Zm.73-1,.49.12h0Zm0-3.62-.49.13h0ZM57.49,24l-.23.45h0Zm-1.77-.36,0,.5h0ZM51,23.1l-.05.49h0Zm-2.63-.82-.3.41h0Zm-1.17-1.65-.49.13h0Zm.5-6.16-.41-.28h0ZM49.9,12.9l-.13-.48h0Zm9.86.09h.5v-.41l-.41-.08Zm0,2.13-.08.49.58.09v-.58Zm-2.64-.26,0,.5h0Zm-5.43,0,.07.5h0Zm-1.48.48.25.43h0Zm-.76,4.17-.47.15h0Zm.65.76-.24.44h0Zm1.56.33.06-.49h0Zm4.71.53-.06.5h0Zm2.6.59.21-.45h0Zm1.35,1.51-.47.18h0Zm-.4,7,.43.27h0Zm-2.1,1.6.13.48h0Zm-3.61-.17c-1,0-2.15,0-3.41-.11l-.06,1c1.28.08,2.43.11,3.47.11Zm-3.41-.11c-1.25-.07-2.35-.16-3.31-.27l-.11,1c1,.11,2.1.21,3.36.28Zm-2.86.22V29.62h-1v2.21Zm-.55-1.71c2.43.24,4.48.36,6.12.36v-1q-2.4,0-6-.36Zm6.12.36A20.1,20.1,0,0,0,56,30.37l-.13-1a19.72,19.72,0,0,1-2.32.1ZM56,30.37a5,5,0,0,0,1.67-.54L57.16,29a4.14,4.14,0,0,1-1.35.42Zm1.69-.55a2,2,0,0,0,1-1.28l-1-.25a1.06,1.06,0,0,1-.5.68Zm1-1.28a8.41,8.41,0,0,0,.18-1.89h-1a7.48,7.48,0,0,1-.15,1.64Zm.18-1.89a8.09,8.09,0,0,0-.16-2l-1,.25a8.38,8.38,0,0,1,.12,1.72Zm-.15-2a1.7,1.7,0,0,0-.95-1.14l-.43.9a.66.66,0,0,1,.4.49Zm-.94-1.14a5.84,5.84,0,0,0-1.94-.41l-.09,1a4.9,4.9,0,0,1,1.58.31Zm-1.93-.41L51,22.6l-.11,1,4.76.53ZM51,22.6a5.31,5.31,0,0,1-2.4-.73l-.57.83a6.31,6.31,0,0,0,2.86.89Zm-2.39-.72a2.67,2.67,0,0,1-1-1.39l-1,.29A3.71,3.71,0,0,0,48,22.69Zm-1-1.38a10.16,10.16,0,0,1-.26-2.56h-1a11.21,11.21,0,0,0,.29,2.82Zm-.26-2.56a5.75,5.75,0,0,1,.7-3.19l-.84-.56a6.81,6.81,0,0,0-.86,3.75Zm.69-3.18a3.35,3.35,0,0,1,2-1.37l-.26-1a4.36,4.36,0,0,0-2.52,1.77Zm2-1.37A14.77,14.77,0,0,1,53.79,13V12a15.87,15.87,0,0,0-4,.41ZM53.79,13c1.07,0,2.16.05,3.26.14l.09-1C56,12.06,54.89,12,53.79,12Zm3.26.14a22.4,22.4,0,0,1,2.61.33l.19-1a25.22,25.22,0,0,0-2.71-.35ZM59.26,13v2.13h1V13Zm.57,1.63c-.73-.11-1.62-.2-2.68-.26l0,1c1,.06,1.89.14,2.58.25Zm-2.67-.25c-1.06-.08-2-.12-2.95-.12v1c.88,0,1.84,0,2.88.11Zm-2.95-.12a18.23,18.23,0,0,0-2.59.15l.14,1a17.38,17.38,0,0,1,2.45-.14Zm-2.59.15a4.32,4.32,0,0,0-1.68.55l.53.84a3.38,3.38,0,0,1,1.29-.4ZM50,14.93a2.07,2.07,0,0,0-1,1.19l1,.29a1.05,1.05,0,0,1,.53-.61Zm-1,1.19a6.4,6.4,0,0,0-.19,1.74h1a5.39,5.39,0,0,1,.15-1.45Zm-.19,1.74a6.34,6.34,0,0,0,.2,1.83l1-.3a5.5,5.5,0,0,1-.15-1.53ZM49,19.7a1.78,1.78,0,0,0,.88,1l.47-.89a.75.75,0,0,1-.4-.47Zm.9,1.05a5.81,5.81,0,0,0,1.73.38l.11-1a4.74,4.74,0,0,1-1.41-.29Zm1.73.38,4.7.53.11-1-4.7-.53Zm4.71.53a8.11,8.11,0,0,1,2.45.55l.41-.91a8.73,8.73,0,0,0-2.76-.63Zm2.45.55a2.09,2.09,0,0,1,1.08,1.23l.93-.36a3.07,3.07,0,0,0-1.6-1.78Zm1.08,1.24a9,9,0,0,1,.36,3h1a10,10,0,0,0-.43-3.4Zm.36,3A6.87,6.87,0,0,1,59.5,30l.85.53a7.89,7.89,0,0,0,.86-4.08ZM59.5,30a3.06,3.06,0,0,1-1.81,1.39l.27,1a4.1,4.1,0,0,0,2.39-1.81ZM57.7,31.4a14.73,14.73,0,0,1-3.49.32v1A15.74,15.74,0,0,0,58,32.37Zm7.71.6h-.5v.5h.5Zm0-19.26v-.5h-.5v.5Zm2.41,0h.5v-.5h-.5Zm0,19.26v.5h.5V32Zm-1.91,0V12.74h-1V32Zm-.5-18.76h2.41v-1H65.41Zm1.91-.5V32h1V12.74Zm.5,18.76H65.41v1h2.41Zm23.05.5h-.5v.5h.5Zm0-15.15h.5v-.5h-.5Zm-.12,0v-.5h-.32l-.14.3ZM84.15,32v.5h.32l.13-.3Zm-1.77,0-.46.2.13.3h.33ZM75.8,16.85l.46-.2-.13-.3H75.8Zm-.11,0v-.5h-.5v.5Zm0,15.15v.5h.5V32Zm-2.27,0h-.5v.5h.5Zm0-19.26v-.5h-.5v.5Zm3.25,0,.46-.21L77,12.24h-.33Zm6.58,15-.46.2.13.3h.33Zm.14,0v.5h.33l.13-.3Zm6.58-15v-.5h-.33l-.13.29Zm3.25,0h.5v-.5h-.5Zm0,19.26v.5h.5V32Zm-1.85,0V16.85h-1V32Zm-.5-15.65h-.12v1h.12Zm-.58.3L83.69,31.8l.91.4,6.61-15.15ZM84.15,31.5H82.38v1h1.77Zm-1.31.3L76.26,16.65l-.92.4L81.92,32.2Zm-7-15.45h-.11v1h.11Zm-.61.5V32h1V16.85Zm.5,14.65H73.42v1h2.27Zm-1.77.5V12.74h-1V32Zm-.5-18.76h3.25v-1H73.42Zm2.79-.3,6.58,15,.92-.41-6.58-15Zm7,15.28h.14v-1h-.14Zm.6-.3,6.58-15-.92-.41-6.58,15ZM90,13.24h3.25v-1H90Zm2.75-.5V32h1V12.74Zm.5,18.76H90.87v1h2.35Zm5.6-18.76v-.5h-.5v.5Zm12,.75-.27.43h0Zm1.59,2-.47.14h0Zm0,6.6.48.15h0Zm-1.62,2.08-.27-.43h0Zm-9.55.78v-.5h-.5V25Zm0,7v.5h.5V32Zm-2.41,0h-.5v.5h.5Zm10.25-9.6.2.45h0Zm1.09-1.18-.47-.15h0Zm0-4.7-.48.13h0Zm-1.06-1.15-.22.45h0ZM101.23,15v-.5h-.5V15Zm0,7.78h-.5v.5h.5Zm-2.41-9.52h8.46v-1H98.82Zm8.46,0a6.14,6.14,0,0,1,3.26.68l.53-.85a7.13,7.13,0,0,0-3.79-.83Zm3.26.68a3.08,3.08,0,0,1,1.39,1.76l.95-.29a4.08,4.08,0,0,0-1.81-2.32Zm1.39,1.76a11.38,11.38,0,0,1,.36,3.19h1a12.25,12.25,0,0,0-.41-3.48Zm.36,3.19a10.85,10.85,0,0,1-.37,3.13l1,.29a12.18,12.18,0,0,0,.41-3.42ZM111.93,22a3.21,3.21,0,0,1-1.42,1.79l.54.85a4.2,4.2,0,0,0,1.83-2.35Zm-1.42,1.8a6.19,6.19,0,0,1-3.29.7v1a7.13,7.13,0,0,0,3.83-.86Zm-3.29.7h-6v1h6Zm-6.49.5v7h1V25Zm.5,6.5H98.82v1h2.41Zm-1.91.5V12.74h-1V32Zm7.09-8.74a7.49,7.49,0,0,0,2.86-.41l-.4-.91a6.72,6.72,0,0,1-2.46.32Zm2.87-.41a2.42,2.42,0,0,0,1.36-1.48l-1-.3a1.44,1.44,0,0,1-.83.87Zm1.36-1.48a8.69,8.69,0,0,0,.28-2.5h-1a7.92,7.92,0,0,1-.23,2.2Zm.28-2.5a8.76,8.76,0,0,0-.28-2.51l-1,.31a7.92,7.92,0,0,1,.23,2.2Zm-.28-2.49a2.21,2.21,0,0,0-1.34-1.47l-.4.92a1.24,1.24,0,0,1,.78.82Zm-1.32-1.46a6.83,6.83,0,0,0-2.85-.44v1a6,6,0,0,1,2.41.34Zm-2.85-.44h-5.24v1h5.24Zm-5.74.5v7.78h1V15Zm.5,8.28h5.18v-1h-5.18ZM117.09,32h-.5v.5h.5Zm0-19.26v-.5h-.5v.5Zm2.41,0h.5v-.5h-.5Zm0,16.94H119v.5h.5Zm9,0h.5v-.5h-.5Zm0,2.32v.5h.5V32Zm-10.9,0V12.74h-1V32Zm-.5-18.76h2.41v-1h-2.41Zm1.91-.5V29.68h1V12.74Zm.5,17.44h9v-1h-9Zm8.49-.5V32h1V29.68Zm.5,1.82h-11.4v1h11.4Zm3.66.5h-.5v.5h.5Zm0-19.26v-.5h-.5v.5Zm12.55,0h.5v-.5h-.5Zm0,2.24v.5h.5V15Zm-10.14,0v-.5h-.5V15Zm0,6.18h-.5v.5h.5Zm8.79,0h.5v-.5h-.5Zm0,2.24v.5h.5v-.5Zm-8.79,0v-.5h-.5v.5Zm0,6.36h-.5v.5h.5Zm10.14,0h.5v-.5h-.5Zm0,2.24v.5h.5V32Zm-12,0V12.74h-1V32Zm-.5-18.76H144.7v-1H132.15Zm12-.5V15h1V12.74Zm.5,1.74H134.56v1H144.7Zm-10.64.5v6.18h1V15Zm.5,6.68h8.79v-1h-8.79Zm8.29-.5V23.4h1V21.16Zm.5,1.74h-8.79v1h8.79Zm-9.29.5v6.36h1V23.4Zm.5,6.86H144.7v-1H134.56Zm9.64-.5V32h1V29.76Zm.5,1.74H132.15v1H144.7Z" transform="translate(0 0)" style="fill:#ff9f29"/></svg>